<?xml version="1.0" encoding="UTF-8"?>
<svg width="79px" height="115px" viewBox="0 0 79 115" version="1.1" xmlns="http://www.w3.org/2000/svg" xmlns:xlink="http://www.w3.org/1999/xlink">
    <!-- Generator: Sketch 60.1 (88133) - https://sketch.com -->
    <title>Group</title>
    <desc>Created with Sketch.</desc>
    <g id="Page-1" stroke="none" stroke-width="1" fill="none" fill-rule="evenodd">
        <g id="Desktop-HD-Copy-2" transform="translate(-760.000000, -4813.000000)">
            <g id="wushu" transform="translate(760.000000, 4813.000000)">
                <g id="Group">
                    <ellipse id="Oval" fill="#FFFFFF" cx="39.3226531" cy="12.0911215" rx="12.0918367" ry="12.0911215"></ellipse>
                    <path d="M5.06083673,114.720023 C5.61706122,114.861893 6.17543537,114.929603 6.72413605,114.929603 C9.72291156,114.93014 12.4551293,112.907967 13.2300816,109.869065 L19.7102313,84.4304206 L33.1826871,76.3707477 L35.0163469,67.0734813 C30.911034,66.7881308 27.953102,66.060514 26.1919932,64.8976168 L10.4355238,74.3233178 C8.91732653,75.2325701 7.81132653,76.7157477 7.37494558,78.4294626 L0.209591837,106.552874 C-0.706163265,110.148505 1.46606803,113.804322 5.06083673,114.720023 Z" id="Path" fill="#FFFFFF"></path>
                    <path d="M50.6733946,58.1615187 L51.1242857,57.9750467 L52.4989932,44.6108645 C52.8101565,45.0644159 53.132068,45.5125935 53.4668776,45.9500234 C54.889415,47.7647664 56.4457687,49.4811682 58.7706259,50.6413785 C59.3580204,50.9251168 59.998619,51.0675234 60.6402925,51.0675234 C61.2373605,51.0675234 61.8355034,50.9439252 62.3906531,50.6961916 C63.5412585,50.183528 64.4183197,49.176472 64.7697891,47.9673598 C64.8740476,47.6083879 65.9467279,43.7236449 65.9456539,36.5248598 C65.9456539,33.5692523 65.7650816,30.0574533 65.2658231,26.0034346 C64.9750816,23.646472 62.8307959,21.971986 60.4731565,22.2621729 C58.1160544,22.5518224 56.4420068,24.6975935 56.7316735,27.0534813 C57.1562313,30.5029439 57.3233673,33.4800467 57.3443265,35.9761916 C56.9573878,35.2448131 56.5983946,34.5236449 56.2807823,33.8524533 C55.7535782,32.7432944 55.3263333,31.7636449 55.0361293,31.0714953 C54.8915646,30.7248832 54.7803197,30.4508178 54.7077687,30.2681075 C54.6341429,30.0843224 54.6056599,30.0112383 54.6056599,30.0101636 C53.8978844,28.1561916 52.045415,27.0798131 50.1617755,27.2700467 C50.0118367,27.2539252 49.8592109,27.243715 49.7049728,27.243715 L28.9419456,27.243715 C28.7871701,27.243715 28.6345442,27.2539252 28.484068,27.2700467 C26.5993537,27.0803505 24.7468844,28.1556542 24.0391088,30.0101636 C24.0391088,30.0101636 24.0294354,30.0348832 23.9982653,30.1149533 C23.785449,30.658785 22.745551,33.2360748 21.2999048,35.9772664 C21.3208639,33.4795093 21.4874626,30.5040187 21.9141701,27.0545561 C22.2049116,24.6992056 20.5308639,22.5523598 18.1737619,22.2610981 C15.8182721,21.9698364 13.6712993,23.6443224 13.3800204,26.0007477 C12.8786122,30.0574533 12.6985782,33.5714019 12.6985782,36.526472 C12.6985782,43.725257 13.7707211,47.6083879 13.875517,47.9657477 C14.2259116,49.176472 15.1029728,50.1824533 16.2535782,50.6956542 C16.8081905,50.9428505 17.4057959,51.0659112 18.0039388,51.0659112 C18.6450748,51.0659112 19.2867483,50.9235047 19.8741429,50.6403037 C22.199,49.4806308 23.7542789,47.7647664 25.1778912,45.949486 C25.5137755,45.5099065 25.8340748,45.0579673 26.1473878,44.601729 L27.5301565,58.0540421 C29.5674966,58.5113551 35.2178776,59.6876882 39.3221156,59.6876882 C46.8916054,59.6892991 50.6368503,58.176028 50.6733946,58.1615187 Z" id="Path" fill="#FFFFFF"></path>
                    <path d="M43.6273469,67.0734813 L45.4615442,76.3702103 L58.9329252,84.4298832 L65.4152245,109.869065 C66.1885646,112.90743 68.9218571,114.929603 71.9195578,114.93014 C72.4693333,114.93014 73.0271701,114.86243 73.5833946,114.720561 C77.1792381,113.805397 79.350932,110.148505 78.4346395,106.552874 L71.2682109,78.4294626 C70.8312925,76.7152103 69.7247551,75.2320327 68.2081701,74.3238551 L52.4538503,64.8981542 C50.6916667,66.060514 47.7331973,66.7881308 43.6273469,67.0734813 Z" id="Path" fill="#FFFFFF"></path>
                    <path d="M39.3312517,67.2126636 L39.3215782,67.2126636 C38.1827959,67.2126636 37.1122653,67.1857944 36.0992381,67.1368925 L31.4806939,90.551215 L36.7742313,91.4787383 L39.2995442,77.0704206 L39.3237279,76.9656308 L41.87,91.4792757 L47.1624626,90.5501402 L42.5439184,67.1368925 C41.5335782,67.1857944 40.4662721,67.2126636 39.3312517,67.2126636 Z" id="Path" fill="#FBEC06"></path>
                    <path d="M39.3226531,66.1378976 C39.3248027,66.1378976 39.3280272,66.1378976 39.3312517,66.1378976 C49.6641293,66.1378976 51.7546735,64.0775701 52.2458707,63.7304206 L51.0984898,59.1481542 C51.0963401,59.149229 51.0941905,59.1503037 51.090966,59.1519159 C51.0802177,59.1572897 47.229102,60.7656776 39.3226531,60.7646028 C34.0629728,60.7646028 27.5973333,59.1755607 27.5602517,59.156215 C27.5548776,59.153528 27.5527279,59.1519159 27.5505782,59.1508411 C27.5484286,59.149229 27.5462789,59.1486916 27.5452041,59.1481542 L27.6091565,59.1868458 L26.398898,63.7304206 C26.8906327,64.0770327 28.9827891,66.138972 39.3226531,66.1378976 Z" id="Path" fill="#FBEC06"></path>
                </g>
            </g>
        </g>
    </g>
</svg>