<?xml version="1.0" encoding="UTF-8"?>
<svg width="154px" height="136px" viewBox="0 0 154 136" version="1.1" xmlns="http://www.w3.org/2000/svg" xmlns:xlink="http://www.w3.org/1999/xlink">
    <!-- Generator: Sketch 60.1 (88133) - https://sketch.com -->
    <title>Group</title>
    <desc>Created with Sketch.</desc>
    <g id="Page-1" stroke="none" stroke-width="1" fill="none" fill-rule="evenodd">
        <g id="Desktop-HD-Copy-2" transform="translate(-749.000000, -5567.000000)">
            <g id="noun_Martial-Arts_126784" transform="translate(749.000000, 5567.000000)">
                <g id="Group">
                    <path d="M146.3805,30.5967595 C146.01125,27.9415696 143.927,25.8244051 141.18125,25.8244051 L79.82975,25.8244051 L90.433,36.4119747 L124.78375,36.4119747 L123.1335,38.5099241 L135.548,48.1891392 L137.79675,45.3295696 C138.138,47.8921772 138.50025,50.6242278 138.85375,53.2864051 L117.649,36.9534937 C117.649,36.9534937 116.0215,39.0444557 114.38875,41.1266835 C112.76825,43.2036709 112.52325,46.3427342 115.26025,48.5157975 L108.353,57.267443 L67.55875,16.4176962 L63.1575,20.5908861 C61.80825,21.9411899 61.01025,23.8627089 61.30075,25.8244051 C61.30075,25.8244051 48.35075,25.8244051 41.4155,25.8244051 C41.02525,25.8244051 39.85975,26.0462532 39.41525,26.2261772 C38.95675,26.4130886 38.07825,26.9668354 37.702,27.3389114 C29.31425,35.5996962 19.8765,44.8037722 13.923,50.6137468 C12.38125,52.1177722 11.914,54.4043797 12.726,56.3940253 C13.54325,58.3836709 15.4805,59.6868101 17.63475,59.6868101 L36.4035,59.6868101 L36.46825,75.0432405 C36.47175,76.2782532 36.73775,77.9814177 38.1255,79.2461266 C39.984,80.9457975 61.32,99.5740506 63.616,101.493823 C63.6055,105.969215 63.53725,129.231823 63.53725,129.231823 C63.53725,133.34562 66.6505,135.406886 69.727,135.406886 L75.7995,135.253165 L75.89925,98.6482278 C75.90275,96.8332658 75.0995,95.1073924 73.70125,93.9405063 L52.2165,75.9673165 L52.15525,59.6868101 L53.44325,59.6868101 C53.45025,59.6868101 53.45375,59.6833165 53.46075,59.6833165 C56.98525,59.6728354 58.74575,57.0351139 58.74575,54.3921519 C58.74575,51.7491899 58.74925,49.1009873 58.74925,49.1009873 C58.74925,49.1009873 32.50975,49.1009873 30.61975,49.1009873 C32.54125,47.2178987 34.5065,45.2963797 36.358,43.4849114 L36.372,47.1183291 L52.122,47.1183291 L52.0905,37.1666076 C52.0905,36.8975949 52.03625,36.6687595 52.01875,36.4119747 L70.1925,36.4119747 C70.1925,36.4119747 107.19625,73.413443 107.401,73.5724051 L107.2995,135.253165 L113.36675,135.406886 C116.44325,135.406886 119.553,133.34562 119.553,129.231823 L119.686,68.296962 L127.76225,58.0692405 L142.5515,69.6018481 C144.25075,70.9259494 146.58175,71.0936456 148.44725,70.0245823 C150.31625,68.9572658 151.35575,66.8680506 151.07225,64.7369114 C151.074,64.7351646 147.469,38.3998734 146.3805,30.5967595 Z" id="Path" fill="#0E0E0E"></path>
                    <path d="M144.214,1.40888608 C149.24175,1.40888608 153.33325,6.34893671 153.33325,12.4226835 C153.33325,18.4964304 149.24175,23.436481 144.214,23.436481 C139.18275,23.436481 135.09125,18.4964304 135.09125,12.4226835 C135.09125,6.34893671 139.18275,1.40888608 144.214,1.40888608 Z" id="Shape" fill="#FBEC06" fill-rule="nonzero"></path>
                    <path d="M2.08425,123.231443 C-0.4515,126.471823 0.728,130.010911 3.1535,131.900987 L8.03075,135.506456 L44.80175,88.0082532 L35.392,80.1265316 L2.08425,123.231443 Z" id="Path" fill="#0E0E0E"></path>
                    <path d="M47.19925,0.0166582278 C52.227,0.0166582278 56.3185,4.95670886 56.3185,11.0304557 C56.3185,17.1042025 52.227,22.0442532 47.19925,22.0442532 C42.168,22.0442532 38.0765,17.1042025 38.0765,11.0304557 C38.0765,4.95670886 42.168,0.0166582278 47.19925,0.0166582278 Z" id="Shape" fill="#FBEC06" fill-rule="nonzero"></path>
                </g>
            </g>
        </g>
    </g>
</svg>