<?xml version="1.0" encoding="UTF-8"?>
<svg width="106px" height="90px" viewBox="0 0 106 90" version="1.1" xmlns="http://www.w3.org/2000/svg" xmlns:xlink="http://www.w3.org/1999/xlink">
    <!-- Generator: Sketch 61.2 (89653) - https://sketch.com -->
    <title>Group</title>
    <desc>Created with Sketch.</desc>
    <g id="Page-1" stroke="none" stroke-width="1" fill="none" fill-rule="evenodd">
        <g id="Desktop-HD-Copy-5" transform="translate(-743.000000, -3375.000000)">
            <g id="health" transform="translate(744.000000, 3375.000000)">
                <g id="Group">
                    <polygon id="Path-2" stroke="#FBEC06" stroke-width="6" points="1.98951966e-13 43.0747667 29.7463713 43.1682561 34.3302656 29.9793043 40.9148382 56.4029852 46.2437051 43.8856334 55.2855372 43.8856334 59.3002309 29.9793043 67.0724975 56.4029852 73.3631868 43.1911448 104 43.0747667"></polygon>
                    <path d="M59.0406729,38.4830769 L66.82624,61.5233192 L74.0205093,45.5553808 L85.1215964,45.5553808 L85.1215964,45.5154 L103.998902,45.5154 L103.998902,49.9172308 L92.3752844,49.9172308 C79.6257742,72.1963154 51.9317298,89.9573077 51.9317298,89.9573077 C51.9317298,89.9573077 24.2376738,72.1963038 11.4881751,49.9172192 L11.4881751,49.9172192 L0.00109777778,49.9172192 L0.00109777778,45.5154 L19.7782116,45.5154 L19.7782116,45.5553808 L31.7674702,45.5553808 L34.5447093,39.0642577 L41.1847858,60.4741038 L47.8591591,45.6794885 L56.901,45.6794885 L59.0406729,38.4830769 Z M72.1753298,0.0426923077 C84.5661324,0.0426923077 97.564376,9.06624231 98.6193636,27.3404654 C98.8264904,32.0430057 98.0898676,36.7394329 96.4528124,41.1535731 L96.4528124,41.1535731 L71.1698924,41.1535731 L67.4130773,49.4918192 L58.772168,23.9200962 L53.6112258,41.2776231 L45.0098711,41.2776231 L41.9498676,48.0607615 L35.2054213,26.3150192 L28.8571342,41.1535731 L7.41064711,41.1535615 C5.77360643,36.7394185 5.03699935,32.0429911 5.24414222,27.3404538 C6.29908356,9.06623077 19.2973387,0.0426923077 31.6881298,0.0426923077 C40.6295991,0.0426923077 48.3260613,6.42323077 51.9317298,15.6310385 C55.5373982,6.42323077 63.2338489,0.0426923077 72.1753298,0.0426923077 Z" id="Path-3" fill="#000000"></path>
                </g>
            </g>
        </g>
    </g>
</svg>