<?xml version="1.0" encoding="UTF-8"?>
<svg width="85px" height="119px" viewBox="0 0 85 119" version="1.1" xmlns="http://www.w3.org/2000/svg" xmlns:xlink="http://www.w3.org/1999/xlink">
    <!-- Generator: Sketch 60.1 (88133) - https://sketch.com -->
    <title>noun_Health_2530410</title>
    <desc>Created with Sketch.</desc>
    <g id="Page-1" stroke="none" stroke-width="1" fill="none" fill-rule="evenodd">
        <g id="Desktop-HD-Copy-2" transform="translate(-733.000000, -3353.000000)">
            <g id="noun_Health_2530410" transform="translate(733.000000, 3353.000000)">
                <path d="M42.609434,42.6550357 C52.3994806,25.668517 74.6153554,33.5955591 74.6153554,52.4694687 C74.6153554,62.6613799 51.6464001,80.0253767 42.609434,86.0650278 C33.1959277,80.0253767 10.6035126,62.6613799 10.6035126,52.4694687 C10.6035126,33.5955591 32.8193875,25.668517 42.609434,42.6550357 Z M42.609434,0 C55.7883428,0 61.8129869,16.2315623 52.3994806,25.2910389 C45.9982963,30.9532117 35.8317095,30.1982554 30.9366862,23.0261697 C24.1589617,13.5892149 30.9366862,0 42.609434,0 Z M1.94308682,22.2712133 L11.7331334,30.9532117 C12.1096736,30.5757335 12.8627541,30.1982554 13.2392944,30.1982554 C16.2516164,27.9333862 19.6404787,26.4234734 23.4058812,26.0459952 C19.6404787,22.6486915 15.4985359,18.8739096 9.85043211,14.3441713 C4.20232834,9.4369548 -3.70501695,17.3639968 1.94308682,22.2712133 Z M28.6774447,86.0650278 L28.6774447,113.620936 C28.6774447,120.793021 40.7267328,120.793021 40.7267328,113.620936 L40.7267328,94.369548 C37.7144108,92.482157 33.1959277,89.4623315 28.6774447,86.0650278 Z M44.115595,94.369548 L44.115595,113.620936 C44.115595,120.793021 56.1648831,120.793021 56.1648831,113.620936 L56.1648831,86.0650278 C51.6464001,89.4623315 47.5044573,92.482157 44.115595,94.369548 Z M73.1091944,30.9532117 L82.899241,22.2712133 C88.923885,17.3639968 80.6399995,9.4369548 74.9918957,14.3441713 C69.7203322,18.8739096 65.2018491,22.6486915 61.4364466,26.0459952 C65.2018491,26.4234734 68.9672517,27.9333862 71.9795737,30.1982554 C72.3561139,30.1982554 72.7326542,30.5757335 73.1091944,30.9532117 Z M53.9056416,14.7216495 C53.9056416,17.741475 52.3994806,20.7613006 50.1402391,23.0261697 C45.2452158,27.1784298 37.7144108,26.8009516 33.572468,21.5162569 C32.066307,19.628866 31.3132265,17.3639968 31.3132265,14.7216495 L53.9056416,14.7216495 Z" id="Shape" fill="#000000"></path>
                <polygon id="Path" fill="#FBEC06" points="38.090951 45.297383 47.1279171 45.297383 47.1279171 55.8667724 57.6710441 55.8667724 57.6710441 65.3037272 47.1279171 65.3037272 47.1279171 75.8731166 38.090951 75.8731166 38.090951 65.3037272 27.1712837 65.3037272 27.1712837 55.8667724 38.090951 55.8667724"></polygon>
            </g>
        </g>
    </g>
</svg>