<?xml version="1.0" encoding="UTF-8"?>
<svg width="23px" height="33px" viewBox="0 0 23 33" version="1.1" xmlns="http://www.w3.org/2000/svg" xmlns:xlink="http://www.w3.org/1999/xlink">
    <!-- Generator: Sketch 60.1 (88133) - https://sketch.com -->
    <title>Shape</title>
    <desc>Created with Sketch.</desc>
    <g id="Page-1" stroke="none" stroke-width="1" fill="none" fill-rule="evenodd">
        <g id="Desktop-HD" transform="translate(-78.000000, -71.000000)" fill="#FBEC06" fill-rule="nonzero">
            <path d="M101,82.4316203 C101,76.1181107 95.8512745,71 89.5,71 C83.1487255,71 78,76.1181107 78,82.4316203 C78,82.6243236 78.0048245,82.8158642 78.0144734,83.0062423 C78.0051169,83.1966203 78.0002924,83.388161 78,83.5808643 C78.0004386,89.8938585 89.5002193,104 89.5002193,104 C89.5002193,104 101,89.8938585 101,83.5804283 C101,83.387725 100.995176,83.1961844 100.985527,83.0058063 C100.994883,82.8157189 100.999708,82.6243236 101,82.4316203 Z M89.5000804,88 C87.2755294,88 85.2700306,86.7817624 84.418774,84.9133673 C83.5675174,83.0449722 84.0381501,80.8943823 85.6112098,79.4644455 C87.1842695,78.0345087 89.5499571,77.6068377 91.6051217,78.3808608 C93.6602864,79.154884 95.0001828,80.9781649 95,83.000484 C94.9997504,85.7617069 92.5374256,88 89.5000804,88 Z" id="Shape"></path>
        </g>
    </g>
</svg>